# xmcd
#
# Track frame offsets:
#	150
#	21559
#	36783
#	62183
#	75796
#	97546
#	114186
#	129363
#	160787
#	180738
#	201512
#	215461
#	231736
#	249734
#	267613
#	285238
#
# Disc length: 4124 seconds
#
# Revision: 1
# Processed by: cddbd v1.5.2PL0 Copyright (c) Steve Scherf et al.
# Submitted via: audiograbber 1.83.01
#
DISCID=dc101a10
DTITLE=The Gamblers - GIG
DYEAR=2011
DGENRE=blues
TTITLE0=Big Boss Man
TTITLE1=Done Got Over
TTITLE2=Stranger Blues
TTITLE3=Change Your Mind
TTITLE4=Hucklebuck
TTITLE5=Rollin Man
TTITLE6=Letter To My Girlfriend
TTITLE7=Drunken Hearted Blues
TTITLE8=Get Out Of My Life, Woman
TTITLE9=One More Shot
TTITLE10=Hey Bartender
TTITLE11=Evil Hearted Man
TTITLE12=Homeless
TTITLE13=Everyday I Have The Blues
TTITLE14=Percolatin
TTITLE15=I Dont Need No Doctor
EXTD=
EXTT0=
EXTT1=
EXTT2=
EXTT3=
EXTT4=
EXTT5=
EXTT6=
EXTT7=
EXTT8=
EXTT9=
EXTT10=
EXTT11=
EXTT12=
EXTT13=
EXTT14=
EXTT15=
PLAYORDER=
